<?xml version="1.0" encoding="UTF-8"?>
<!-- Generator: Adobe Illustrator 16.0.0, SVG Export Plug-In . SVG Version: 6.00 Build 0)  -->
<!DOCTYPE svg PUBLIC "-//W3C//DTD SVG 1.1//EN" "http://www.w3.org/Graphics/SVG/1.1/DTD/svg11.dtd">
<svg version="1.1" id="Layer_1" xmlns="http://www.w3.org/2000/svg" xmlns:xlink="http://www.w3.org/1999/xlink" x="0px" y="0px" width="1000px" height="224.131px" viewBox="0 0 1000 224.131" enable-background="new 0 0 1000 224.131" xml:space="preserve">
<path fill="white" d="M538.348,149.771c-4.744,0-8.591,3.855-8.591,8.596c0,4.741,3.847,8.592,8.591,8.592c4.745,0,8.604-3.851,8.604-8.592  C546.952,153.626,543.093,149.771,538.348,149.771 M538.348,165.096c-3.709,0-6.728-3.016-6.728-6.729s3.019-6.736,6.728-6.736  c3.719,0,6.742,3.022,6.742,6.736S542.066,165.096,538.348,165.096 M179.056,161.252h20.774V82.089h-20.774V161.252z   M499.503,112.269l-37.597-32.365v81.235l20.87,0.076V127.77l37.434,36.659V82.361h-20.707V112.269z M115.389,142.052  c-11.239,0-20.348-9.109-20.348-20.337c0-11.237,9.109-20.338,20.348-20.338c4.983,0,9.548,1.789,13.086,4.755L141.92,90.87  c-7.121-6.128-16.396-9.833-26.536-9.833c-22.474,0-40.696,18.208-40.696,40.678c0,22.47,18.222,40.672,40.696,40.672  c10.223,0,19.566-3.75,26.713-9.981l-13.445-15.268C125.09,140.193,120.458,142.052,115.389,142.052 M366.12,54.528H263.306  l-23.937,62.507L215.43,54.528H109.248L98.203,75.311h47.571l-0.024,85.998h21.439l0.063-85.998h32.838l39.28,104.309  l39.282-104.309h98.811L366.12,54.528z M327.497,100.773c1.075-1.527,4.908-1.527,4.908-1.527h13.344V82.06h-21.625  c-7.064,0-17.501,4.292-17.501,18.713c0,19.019,23.48,31.451,21.174,39.117c-1.091,3.669-5.524,3.831-7.826,3.831h-14.264v17.494  h23.318c9.974,0,19.953-6.134,19.953-17.797C348.979,121.166,321.708,109.054,327.497,100.773 M278.957,161.208h20.776v-79.16  h-20.776V161.208z M352.333,161.224h20.779V82.06h-20.779V161.224z M540.769,158.274v-0.024c1.003-0.404,1.442-1.212,1.442-2.271  c0-1.374-1.034-2.505-2.654-2.505h-4.882v9.061h1.984v-3.541h2.001c0.997,0,1.361,0.421,1.507,1.374  c0.105,0.725,0.073,1.601,0.314,2.167h1.989c-0.355-0.502-0.34-1.576-0.38-2.143C542.025,159.478,541.755,158.52,540.769,158.274   M538.841,157.579h-2.182v-2.555h2.182c0.89,0,1.37,0.389,1.37,1.254C540.211,157.187,539.73,157.579,538.841,157.579 M0,161.515  h22.094l5.524-14.727h25.778l5.526,14.727h22.094L40.506,45.544L0,161.515z M33.909,125.616l6.143-20.239l6.133,20.239H33.909z   M417.676,80.951c-22.519,0-40.763,18.251-40.763,40.749c0,22.506,18.245,40.761,40.763,40.761  c22.512,0,40.765-18.255,40.765-40.761C458.44,99.202,440.188,80.951,417.676,80.951 M417.676,141.939  c-11.183,0-20.245-9.053-20.245-20.239c0-11.176,9.063-20.231,20.245-20.231c11.188,0,20.253,9.055,20.253,20.231  C437.929,132.886,428.864,141.939,417.676,141.939 M575.813,0c-1.156,0-2.069,0.593-2.069,1.32v221.494  c0,0.732,0.913,1.317,2.069,1.317c1.139,0,2.061-0.585,2.061-1.317V1.32C577.873,0.593,576.951,0,575.813,0 M790.278,133.206  l0.032-0.913h-4.574l-0.09,0.295l-1.398,3.022c-0.323,1.321-0.868,2.466-2.941,3.557l-1.06-1.544l-0.792,0.631  c-1.475,1.357-2.36,4.404-2.595,5.884c-4.534,0.565-7.702,5.428-9.813,8.818c-0.755,1.212-1.697,2.74-2.113,2.926  c-2.728,1.277-4.336,1.297-5.29,1.306l-1.204,0.161l-4.292,2.252l-2.537,1.014l-0.995,0.069l-0.138,0.032l-0.562-0.769  c1.119-1.79,2.769-6.191,4.963-12.262c1.127-3.111,2.393-6.636,2.756-7.125l0.166-0.238l0.17-0.307v-3.701  c0.129-2.151,7.068-21.02,11.469-22.889l0.672-0.289l-0.154-0.726c-0.146-0.645-0.371-2.069-0.371-3.455  c0-0.853,0.08-1.698,0.326-2.326c0.894-2.35,4.895-4.454,6.361-5.062l0.546-0.227v-6.705c0.93-1.142,1.746-3.227,2.74-5.963  c1.423-3.908,3.185-8.778,5.553-10.479l0.513-0.36l-0.174-0.6c-0.003-0.032-0.468-1.702-0.468-3.593  c0-1.593,0.331-3.342,1.552-4.377L786.858,69V43.769l-0.863-2.185l-0.51-1.151v-7.917l-42.055-0.166l0.146,1.018  c0.133,0.881-0.663,2.33-1.196,3.04l-0.178,0.23V49.96l1.624,1.307c2.078,2.121,0.563,7.8-0.193,9.813l-0.089,0.226l0.38,0.782  l0.17,0.923l0.121,0.923l0.8,4.991l0.308,0.226c1.099,0.786,1.051,1.089,0.97,1.685c-0.158,1.015-0.17,2.031,1.33,3.427L748.409,75  l0.607-0.984c2.117-3.439,2.836-4.599,2.836-5.583V57.317c0-1.489,3.476-3.187,4.595-3.187h0.89v-0.885  c0-5.615,3.237-7.222,5.836-8.521c0,0,1.391-0.916,2.041-1.338c0.355,0.01,13.19,0.138,14.734,0.149v8.778  c-2.283,2.168-3.904,4.446-5.294,6.453c-1.338,1.939-2.498,3.617-3.933,4.655c-0.788,1.601-1.03,3.38-1.03,4.979  c0,2.156,0.389,3.708,0.574,4.361c-4.199,3.969-5.197,6.164-5.391,7.103c-0.466,0.355-3.379,2.603-3.379,2.603  c-2.502,3.815-5.165,17.17-5.278,17.741c-4.615,4.807-5.214,8.42-5.545,10.358l-0.194,0.917c-0.008-0.044-3.31,3.726-4.792,6.644  l-1.367,5.088c-0.246,1.561-0.469,3.031-1.106,3.487l-0.315,0.219l-0.057,0.537l-0.614,4.854c-0.429,2.385-0.905,5.007-0.905,7.432  c0,0.78,0.048,1.54,0.158,2.26c0.169,0.332,0.933,1.358,0.933,2.688c0,0.675-0.194,1.423-0.768,2.203l-0.529,0.702l0.731,0.546  c0.59,0.44,2.238,3.893,2.376,4.563l0.041,1.019l-1.043,0.76l-0.355,0.268l-0.024,0.46v8.495c-0.986,0.921-2.045,2.004-2.045,2.595  l0.711,1.688l1.051,1.334l0.493,0.077h10.313c1.491,1.491,4.248,2.138,4.574,2.202c1.674,0.021,2.328-0.913,2.798-1.592  c0.528-0.756,0.945-1.358,2.521-1.358l1.329-0.08l0.198-0.062l0.962,1.436l0.599,0.202h15.559l0.259-0.421  c0.761-1.225,4.066-2.542,4.745-2.546l0.917-0.021l-0.045-0.909c-0.501-9.044-0.679-19.104-0.089-20.279l1.192-2.19  c0.303-0.938,0.461-1.414,1.491-1.689l0.97-0.263l-0.384-0.934C790.242,139.186,790.222,134.765,790.278,133.206 M848.765,161.135  c0-1.423-0.76-2.336-1.418-3.148l-1.051-1.382l-0.481-0.069h-6.462c-0.385-0.408-1.944-2.097-1.944-2.097l-0.569,1.038  c-2.219,3.593-3.9,4.264-6.229,5.197l-5.177,2.692l-2.194,0.792c-1.859,0.565-4.17,1.252-5.479,2.671  c-1.092,1.172-1.282,2.57-1.423,3.597c-0.153,1.136-0.234,1.272-0.502,1.321l-2.893,0.307c-1.608,0.287-2.882,0.502-4.434-0.241  l-0.687-0.328l-0.57,0.865l-0.586,0.86l-0.562-0.437c0.234-0.618,1.192-3.119,1.192-3.119c0.392-0.757,1.289-3.003,1.289-4.462  l-0.045-0.279c1.07-1.467,4.292-7.213,4.918-11.44l0.009-7.227l4.065-11.501l0.048-15.471c0.47-1.928,1.31-2.772,2.195-3.666  l1.867-2.714l0.044-4.912c1.883-2.081,2.692-5.082,3.33-7.806c0.469-1.991,0.958-4.048,1.782-4.636l0.363-0.252l0.417-13.605  c-0.085-0.442-0.117-0.857-0.117-1.25c0-1.449,0.497-2.591,1.087-3.96l1.276-3.712l1.452-8.558c0.076-1.39,0.497-1.655,1.126-2.057  l1.593-1.888c0.203-0.691,0.263-1.527,0.263-2.317c0-1.101-0.108-1.94-0.182-2.429l0.804-0.766c1.925-1.821,2.566-2.433,3.229-4.89  c0.187-0.691,0.238-1.515,0.238-2.293c0-1.18-0.109-2.093-0.174-2.524c2.474-2.574,3.625-5.405,4.421-7.513l1.25-2.697l0.117-0.384  V32.42l-1.723,0.046l-0.068,0.024l-0.998-1.497l-0.493-0.03l-34.965-0.028l-11.341,0.028h-0.881l0.048,0.883v24.858  c-1.317,1.245-2.072,2.37-2.072,3.298l0.384,2.006c0.17,0.552,0.332,1.093,0.332,1.814c0,0.72-0.162,1.617-0.655,2.9l-0.223,0.576  l2.699,2.326l0.821-0.646c0.67-1.087,1.099-1.067,1.811-1.039c2.514,0.122,3.79-1.204,5.168-9.647  c1.379-8.404,3.649-11.4,4.276-11.483l1.467-0.305c1.479-0.402,3.961-1.085,5.084,0.044l1.026,1.449l0.631,0.293h6.801l0.401,0.442  l0.12,0.105l0.009,0.053c0,0.178-0.105,0.518-0.954,1.102l-0.393,0.269l-0.016,0.481v4.49c-3.859,3.886-9.599,16.768-9.599,18.105  v3.965c-0.271,2.473-1.782,5.114-2.872,7.044l-1.218,2.577l-0.023,1.338l0.016,1c0,1.997-1.794,3.805-1.813,3.821l-0.228,0.233  l-0.085,1.059l0.102,1.485l0.998,1.228l0.323,0.324l-8.159,21.551c-0.117,0.484-1.386,6.82-1.386,13.537  c0,3.5,0.347,7.093,1.378,10.023l0.748,1.43l0.573,1.625c0.012,0.146,0.493,2.901,0.493,5.759c0,1.411-0.113,2.833-0.461,3.981  l-0.864,2.109l-0.542,1.482c0.267,0.849,0.469,1.864,0.469,2.688c0,0.517-0.085,0.945-0.283,1.208l-1.269,1.071l-0.263,0.815  c0.133,0.502,0.344,1.585,0.344,2.604c0,0.594-0.073,1.172-0.275,1.588l-1.838,1.839l-1.165,0.816l0.231,0.622  c0.201,0.599,0.46,1.693,0.46,2.636c0,0.549-0.089,1.051-0.319,1.337l-1.176,0.994l-0.389,0.679v5.186l-0.08,0.768  c-0.057,0.429-0.134,0.963-0.134,1.544c0,1.136,0.279,2.502,1.468,3.787l0.262,0.286h0.388c1.884,0,4.111-0.954,5.897-1.725  l2.161-0.833l3.948-0.085l7.04-0.153c2.094-0.675,4.147-2.069,5.444-3.451c0.662,0.064,6.947,0.743,6.947,0.743l-0.089,0.105  l0.444,0.934l0.275,0.392l0.488,0.049h20.725l0.061-1.738l0.974-0.654l0.352-0.268l0.024-0.452v-12.584l-0.573-1.653l-0.801-2.801  c0-1.843,0.484-2.441,0.828-2.878L848.765,161.135z M707.495,37.581c0.59,0.841,1.2,0.964,2.78,0.995  c0.514,1.008,1.552,1.576,2.61,1.881c1.521,0.445,2.543,0.816,2.834,1.93v0.004l1.733,29.465l0.024,0.487l1.277,0.683  c-0.376,0.253-1.358,0.952-1.358,0.952l0.057,0.418l0.444,58.353c-1.18,1.472-1.822,4.123-1.822,5.723l0.941,3.282l0.437,1.172  l0.053,1.374l-1.382,1.131l-0.049,0.461c0,0.024,0.008,0.413,0.008,1.056c0,3.43-0.101,14.217-1.16,17.486l-0.484,0.34l-3.358,2.938  l-2.841,3.852l0.658,0.627l1.003,0.908l1.216,0.721c0.622,0.791,1.617-0.018,4.001-2.39c2.166-0.865,14.064-1.273,15.445-0.348  l0.355,0.23l0.525-0.182l2.005-0.635c0.453,0.142,0.995,0.134,0.995,0.134l3.491,0.602l0.008-1.155l-0.602-4.313l-6.535-4.191  c-2.223-1.26-2.271-1.284-2.926-4.037l-0.263-0.989c-0.448-1.625-0.651-2.521,0.093-3.436l1.196-0.989l0.364-0.61l0.734-10.197  l-0.282-0.348c-0.445-0.578-1.786-4.448-1.819-5.088l-0.864-6.001c-0.263-0.941-0.457-1.653-0.457-2.292  c0-0.752,0.279-1.397,1.071-2.19l1.564-1.26l0.053-0.356v-5.844l-0.323-0.493l-0.179-2.271l-0.093-1.699l-0.339-4.621l0.008-0.307  c0-0.522-0.061-1.308-0.061-1.308c-0.077-0.617-0.158-1.358-0.158-2.116c0-1.142,0.198-2.3,0.913-3.094l1.621-1.292l-0.016-0.563  l-0.672-3.795l-0.307-0.493l-0.348-1.616c-0.146-0.939-0.371-1.677-0.728-2.239c0.448-3.005,0.614-7.495,0.614-12.454  c0-6.086-0.226-12.791-0.404-18.042l-0.218-8.257c0-0.414,0.137-0.538,0.599-0.897c0.589-0.455,1.47-1.138,1.47-2.807  c0-1.597-0.278-2.292-1.11-2.732l-0.271-1.711c0-2.567,3.499-5.318,6.635-6.188l0.646-0.178v-3.21l-0.771-0.932l-1.459-1.958  l-0.671,0.149c-2.352,0.877-22.316,0.857-25.448-0.024l-0.586-0.158l-0.429,0.582l-1.762,2.36l0.646,0.636L707.495,37.581z   M879.858,105.686l0.04-0.533l0.376-7.739v-0.455l-0.367-0.261c-0.853-0.616-1.043-0.919-1.043-1.239l0.041-0.355l0.112-0.856  c0-0.732-0.396-1.601-1.471-2.702v-6.042l-1.365-1.082l-4.386-16.949c-1.414-3.634-4.987-13.434-4.987-16.368v-4.072l-0.787-1.843  c-0.663-0.798-1.883-2.271-4.082-7.05l-0.259-1.441c-0.34-2.515-0.97-7.218-4.66-7.218l-2.295,0.849  c-0.909,0.912-1.026,2.313-1.026,3.763l0.016,1.374c0,2.055-0.21,2.789-1.144,2.908c-0.38,0.137-2.392,2.182-2.392,2.182  l-1.116,1.205l-0.129,0.458v5.656c-0.449,0.603-2.069,2.787-2.069,2.787l-0.569,1.125c-1.477,2.661-2.713,6.84-2.951,7.673  l-0.255,0.178l-1.058,0.927c-0.461,0.6-0.61,1.196-0.61,1.75c0,0.534,0.133,1.03,0.254,1.478l0.187,1.851  c-1.298,1.332-2.19,3.203-3.097,5.238l-0.605,1.346c-1.107,2.429-1.321,5.169-1.508,7.581c-0.21,2.888-0.403,5.379-2.009,6.323  l-0.44,0.265v0.501c0,4.257-1.503,7.511-1.52,7.545l-1.038,1.667l-1.6,3.088l-0.131,3.551l-0.048,3.744  c-0.331,2.21,0.259,2.96,1.245,3.398l0.097,0.028l0.008,0.083c0,0.746-0.125,0.899-0.985,1.508l-0.381,0.256v5.95l-0.145,0.112  l-1.016,0.865c-0.694,0.809-0.925,1.947-0.925,3.075c0,1.693,0.484,3.214,0.671,3.778c-0.291,0.772-0.695,2.611-1.321,8.075  l-0.053,0.485l0.586,0.44l0.837,0.675c-0.009,0.218-0.849,0.675-1.366,0.962l-2.805,2.271c-1.075,1.852-1.265,4.85-1.29,5.666  c-0.5,0.558-5.18,5.877-5.18,5.877l0.359,0.59l0.868,1.835l1.371,3.459l0.76-0.429l13.934-4.962  c1.447-0.408,7.558-0.206,11.309,0.04l0.558,0.036l0.371-0.756l1.317-2.408c0.445-0.582,0.825-1.066,0.825-1.592l-0.081-0.389  l-0.089-0.258l-0.828-0.486l-1.701-1.228c-0.623-0.606-1.363-1.128-2.175-1.436v-7.181c-0.024-0.186-0.614-1.968-1.026-3.197h1.948  c0.901,0.869,2.8,1.968,6.142,3.803c3.246,1.771,9.991,5.456,10.008,6.766c-0.393,11.914-8.577,20.821-8.666,20.909l-0.234,0.252  v0.355c0,3.754,2.385,6.154,4.313,8.074c1.362,1.365,2.542,2.546,2.542,3.79v4.065l4.146,13.588l-0.04,8.874l1.988-0.86l0.614,0.393  l1.648-0.801l1.213-1.095l0.08-0.456v-5.894l1.302-1.059l0.065-0.46v-4.64c0.957-1.196,1.535-3.031,2.028-4.907  c0.465-1.717,0.981-3.657,1.713-4.194l0.364-0.259v-8.042c1.822-2.053,3.084-5.831,4.171-9.304c0.719-2.331,1.632-5.229,2.319-5.714  l0.259-0.202l0.085-0.315c0.432-1.745,0.61-9.336,0.61-16.917c0-7.295-0.162-14.581-0.408-16.73  C881.298,119.291,879.858,108.462,879.858,105.686 M864.315,124.828c-0.541,0.04-1.058,0.04-1.714,0  c-2.957-0.93-5.108-3.645-8.907-4.445c-3.131-0.667-6.304-0.332-8.22,0c0,0-0.021-0.743,1.366-1.107  c0.626-2.271-0.517-10.035,0-12.964c1.204-1.253,1.366-9.202,1.366-9.202c3.168-0.217,1.818-3.557,4.122-5.188l0.311-9.21  c0,0,1.362,5.197,3.299,7.294c1.612,1.748,3.738,0.931,5.638,2.653c2.304,2.077,1.297,9.336,2.739,10.371  C864.793,105.971,864.315,124.828,864.315,124.828 M783.433,177.252l-0.857-0.025c-13.765-0.456-45.994-1.228-48.063,1.553  c-4.692,3.273-10.075,1.754-14.012,0.643c-1.944-0.542-3.346-0.941-4.376-0.687l-1.152,0.675c0,0-2.162,2.081-2.764,2.658  c-3.17,0.478-5.267,0.34-7.462,0.17c0,0-2.072-0.112-3.063-0.153c-0.153-2.287-0.703-3.281-1.342-3.807l-0.017-0.009l0.061-0.266  l1.035-1.759l0.142-0.223l0.23-0.501v-8.843l1.321-1.066l0.061-0.461v-5.907l0.408-0.369c0.897-0.78,0.966-1.074,0.966-2.614  l-0.578-2.235l-0.711-0.908c0.129-0.413,0.279-0.913,0.279-0.913c0.399-1.468,0.585-1.948,1.629-2.118l0.723-0.113l0.021-0.724  c0.016-0.42,0.113-2.962,0.113-5.112c0-1.237-0.033-2.348-0.134-2.865l-0.061-0.323l-1.334-1.067c0,0,0.041-8.737,0.053-9.509  l1.265-1.043l0.098-0.432c0.105-1.727,0.728-12.06,0.728-20.228c0-4.672-0.202-8.628-0.825-9.863l-1.697-1.873l-0.941-0.746v-28.79  l1.298-1.059l0.076-0.469v-6.381l-0.371-0.269c-2.3-1.66-2.389-2.5-2.389-2.512c0.004-0.818,0.105-0.96,1.006-1.598l0.38-0.261  V40.598l-0.372-0.265c-1.491-1.071-4.833-5.058-5.993-6.505l-1.907-0.303c-0.752,0.178-1.682,0.406-3.5-2.567l-0.267-0.426h-11.009  c-0.259-0.38-0.979-1.415-0.979-1.415l-0.509-0.066h-2.319l-0.263,0.725l-0.603,1.534l-1.241,1.396l0.821,0.538  c5.108,3.68,5.73,5.401,6.021,6.22l1.188,1.63l0.42-0.273c2.752-0.103,3.022,0.514,3.022,0.538c0.077,0.149,2.037,3.831,2.353,7.542  v0.101c0,1.3-1.6,5.533-2.223,6.319l-0.525,0.687l2.004,1.627c0.064,0.396,0.098,1.083,0.098,1.924c0,2.326-0.223,5.714-0.363,7.399  l-0.833,0.837l-1.843,1.687l-0.089,0.459v11.166l1.374,1.105v20.807l0.388,0.261c0.364,0.249,1.257,1.366,1.358,2.439l0.008,0.202  c0,1.245-1.051,2.706-1.375,2.926l-0.371,0.269l-0.008,0.462v14.8c-0.009-0.384-0.986,0.396-0.986,0.396l-0.267,0.214l-0.113,0.371  c-0.017,0.13-0.355,2.166-0.355,5.125c0,1.415,0.104,3.083,0.331,4.825l-0.13,0.226l-1.066,0.85l-0.193,0.545l0.032,18.68  l0.379,0.255c1.241,0.881,2.369,1.798,2.369,3.362l0.04,1.106l-1.042,0.757l-0.349,0.271l-0.023,0.452v4.806  c0-0.393-0.97,0.376-0.97,0.376l-0.348,0.258l-0.057,0.485v11.194l0.42,0.303c0.707,0.506,0.954,0.721,0.954,1.104  c0,0.44-0.412,0.752-0.849,1.026l-0.413,0.259l-0.112,0.57v5.88c-0.477,0.404-3.168,2.643-3.168,2.643l-1.564,1.343l-3.706,1.932  l-0.292,0.169l-0.156,0.453l-0.61,1.552l-1.112,1.253l0.704,0.679l1.604,1.746l0.744-0.23c1.754-1.087,8.35-0.497,12.084,0.117  l0.72,0.122l0.238-0.688c0.577-1.552,5.548-5.093,8.551-6.968l4.663,0.143c0.507,0.06,3.156,0.893,3.707,1.798l0.259,0.42h0.493  c10.79-0.016,31.263,0.005,34.359,0.259l0.057,0.093c0.541,0.886,1.191,1.697,3.208,1.867h13.095  c1.221,1.382,2.142,1.552,3.006,1.438c0.413-0.053,0.64-0.076,1.37,1.104l0.263,0.429h4.939l-0.146,0.145l0.405,0.886l0.258,0.4  l0.518,0.049h19.374l-3.362-6.321L783.433,177.252z M991.4,23.996c-4.745,0-8.592,3.856-8.592,8.603  c0,4.738,3.847,8.587,8.592,8.587c4.753,0,8.6-3.849,8.6-8.587C1000,27.852,996.153,23.996,991.4,23.996 M991.4,39.323  c-3.71,0-6.733-3.017-6.733-6.725c0-3.716,3.023-6.737,6.733-6.737c3.718,0,6.741,3.021,6.741,6.737  C998.142,36.306,995.118,39.323,991.4,39.323 M991.102,77.611l-0.235-0.423l-0.671-2.073l-1.163-2.864l0.314,0.703l0.404-14.516  l-0.388-0.277c-0.712-0.501-0.833-0.794-1.406-2.471l-3.783-9.043l-2.279-2.295c-1.52-1.283-3.411-2.873-4.623-4.821l-0.255-0.418  h-6.369c-0.271-0.386-0.99-1.421-0.99-1.421l-0.509-0.064h-5.367c-0.263-0.382-0.978-1.417-0.978-1.417l-0.51-0.063h-4.041  l-0.291-0.36l-1.346-1.782l-0.493-0.079h-4.183c-1.646-1.714-4.074-2.732-6.094-3.502c-1.335-0.501-3.141-1.192-3.241-1.713  l-0.143-0.716h-4.707c-0.275-0.375-1.003-1.422-1.003-1.422l-0.497-0.059h-8.354l1.147,1.445c0.412,0.507,9.101,8.775,12.148,11.673  v7.772c-0.04-0.376-0.982,0.377-0.982,0.377l-0.34,0.269l-0.052,0.467v10.738l-0.979,0.382l-0.331,0.26l-0.064,0.467v27.511  l0.234,0.481l0.437,2.211l0.828,2.887l-0.278-0.695l-0.566,9.863l1.334,1.091c-0.178,0.877-0.274,2.164-0.274,3.819  c0,3.122,0.23,6.879,0.331,8.458l0.873,2.135l0.493,1.147v4.074c0,0.908,3.084,10.854,6.158,14.273  c-0.056,0.562-2.513,24.919-2.513,24.919c0.072,0.449,2.804,6.749,2.804,6.749l1.585,3.952c0.314,0.769,1.022,0.801,1.333,0.816  l0.032,0.283c-0.08,0.525-1.713,1.455-4.865,2.74l-1.516,0.63l0.312,0.801c0.008,0.04,1.589,4.283,1.589,7.363l-0.029,0.671  c-0.287,3.354-1.899,6.785-4.288,9.174l-0.84,0.841l1.047,0.569c1.208,0.651,7.824-0.158,10.119-1.241  c0.206-0.096,0.655-0.403,0.979-0.828l1.535,0.699l2.95,0.881c1.729-0.921,4.741-1.733,7.646-2.514  c5.141-1.406,7.865-2.23,8.407-3.597l0.8-0.728l1.835-2.537l2.279-4.374l0.582-1.656l1.454-7.783  c1.188-2.897,1.172-5.994,1.156-8.988c-0.016-2.825-0.024-5.496,1.01-7.921c1.362-5.088-0.153-26.56-0.206-27.474l-0.295,0.72  l0.474-1.476l0.812-3.92l0.938-7.003c0.347-0.073,1.906-1.568,3.151-4.43c0.724-1.346,0.918-2.96,0.918-4.652  c0-0.978-0.061-1.98-0.129-2.968l-0.065-3.629c0.336-0.601,0.99-1.738,0.99-1.738l0.764-1.524l0.278-0.368  c0.429-1.188,0.57-3.944,0.57-7.064c0-5.525-0.433-12.187-0.513-13.3L991.102,77.611z M976.952,98.941  c-1.944,1.035-3.318,9.959-3.318,9.959s-2.901,1.401-2.578,6.285c-0.974,2.445-0.95,30.237-0.95,30.237  c-0.564,3.29-2.263,5.016-3.767,10.177c0.438,8.422-7.067,16.714-7.613,17.313l0.202-66.571c-1.27-0.659-2.744-6.998-2.744-8.884  c0,0-0.716-1.74-1.1-2.369c-0.016,0.568-0.057,0.841-0.121,0.699c-0.234-1.063-0.121-1.087,0.121-0.699  c0.134-3.874-0.558-21.797-0.558-21.797l-0.388-1.767l0.59-5.653c3.795-0.261,4.987,0.095,8.52,0.095  c1.992,0,2.125,2.964,5.48,2.964c0,3.666,3.257,4.375,5.144,7.038c0.61,0.891,1.367,7.968,3.08,8.885V98.941z M993.825,32.503  v-0.028c1.002-0.406,1.438-1.208,1.438-2.267c0-1.378-1.03-2.506-2.651-2.506h-4.89v9.061h1.996v-3.544h1.988  c0.998,0,1.358,0.428,1.516,1.377c0.093,0.718,0.069,1.599,0.312,2.167h1.988c-0.355-0.501-0.34-1.583-0.381-2.144  C995.077,33.699,994.795,32.748,993.825,32.503 M991.893,31.804h-2.174V29.25h2.174c0.89,0,1.366,0.386,1.366,1.255  C993.259,31.42,992.782,31.804,991.893,31.804 M675.011,161.156c0.13-0.72,0.189-1.464,0.189-2.211c0-1.815-0.314-3.657-0.585-5.237  c-0.162-0.979-0.376-2.235-0.376-2.971l0.089-0.554c1.895-2.425,2.412-5.262,2.412-8.301c0-1.819-0.193-3.722-0.372-5.658  l-0.42-7.097v-6.013c0.21-0.457,0.437-0.963,0.437-0.963l-1.632-2.202l-1.303-1.313c-0.796-1.812-1.066-4.131-1.066-6.424  c0-4.664,1.1-9.241,1.119-9.308l0.134-0.555l-1.678-1.32v-0.127c0-0.437-0.347-1.139-2.461-3.208l-0.565-0.558l-0.688,0.636  c-0.255-0.26-0.541-0.881-0.541-1.279l0.032-0.206c0.429-0.572,1.66-2.524,1.66-4.233l-0.193-1.059  c-0.218-0.518-0.715-1.188-1.867-1.417c-3.645-0.364-5.815-2.113-5.978-2.599c0.865-0.736,5.938-6.753,7.946-10.564l5.096-9.527  c1.079-1.007,1.402-2.496,1.402-4.288c0-1.382-0.194-2.934-0.403-4.593l-0.502-6.066c0-4.159-2.753-11.803-7.238-14.808  c-1.883-1.263-3.823-1.113-4.486-1.03l-0.679-0.538c-0.974-0.659-2.315-1.556-2.695-3.1l-0.146-0.571l-0.582-0.091  c-5.148-0.811-7.598-0.596-11-0.297l-9.182,0.438l-7.21-0.236c-0.129,0-9.328,0.422-11.696,1.772h-7.362l-1.213,1.584l-0.606,2.631  l-0.021,1.366c0,0.564,0.069,0.927,0.578,1.247l0.934,1.178l4.603,4.425l0.13,0.154c-0.493,0.024-1.011,0.048-1.011,0.048  s0.695,0.477,1.286,0.873c0.08,0.592,0.314,0.796,1.316,0.796c0.389,0.214,0.776,0.396,1.156-0.01l0.032-0.061l0.833-0.047  l0.573,0.625l-0.016,0.051l-0.041,1.378l0.101,1.809l-0.949,0.695l-0.347,0.261l-0.179,0.572v34.443  c0.121,0.464,1.617,2.926,1.617,2.926c0.08,1.713,0.129,4.288-0.129,4.789l-1.354,3.085l-0.134,9.938  c0.077,0.392,1.1,2.552,1.111,2.572l-0.008,0.15c0,0.99,0.271,6.546,0.271,6.587c-0.008-0.182-0.347,0.654-1.333,0.743l-0.801,0.073  l-0.149,11.986l-0.295,14.238l0.999,11.247l0.214,2.533c0.654,4.927,0.5,8.074,0.286,12.439l-0.295,10.795  c-0.974,5.091-2.635,11.444-3.104,12.164c-0.646,0.618-2.765,1.567-3.953,2.021l-1.397,0.521l2.239,1.916l0.832,0.748l0.845-0.179  l2.372,0.101c1.911,0.187,3.27,0.264,4.163-0.085c4.744,0.805,12.366,1.653,13.631-0.888c0.901-0.85,1.468-1.035,1.767-1.027  l1.195,0.873c0.47,0.525,0.999,1.127,1.819,1.104c0.562-0.021,1.071-0.336,1.563-0.958c0.566-0.372,5.061-1.241,8.851-1.782  l0.525-0.076l0.183-0.49c0.581-1.563,2.618-3.022,4.781-4.563l1.422-1.034c3.116-2.308,8.722-4.89,8.777-4.919l0.473-0.222  l0.05-0.501c0-0.064,0.533-5.929,1.879-9.296c1.087-2.796,3.884-6.797,3.907-6.829L675.011,161.156 M656.905,150.174  c0.19,1.076-2.068,9.405-2.61,9.772c-0.896,4.425,0.186,9.967-2.102,12.011c-1.851,1.334-4.647,6.354-7.457,6.543l-3.066,2.769  c-1.852,0.74-4.972,1.06-4.972,1.06s3.613-6.476,2.865-5.577c-0.149,1.802-0.355-5.308-0.355-5.308  c0-19.677-0.367-7.722,0.372-12.536c0.142-0.9,0.764-1.175,1.374-1.847v-25.307c-0.941-0.38-1.459-1.212-1.374-2.227  c0.077-0.894,0.529-1.516,1.374-1.851l1.366-6.673c0,0-1.936-7.596,0-10.004c0.315-3.522-0.004-14.614-0.004-14.614l4.34,4.465  c0,0,3.008,2.902,5.537,4.262c0,0,3.568,3.104,2.069,4.544c-1.034,0.733,2.372,3.175,0.032,3.294c0,0,2.36,2.572,1.035,5.219  c1.814,0.966-0.68,5.54-0.68,7.254c0,5.78,2.255,1.723,2.255,8.652c-4.636,3.326,2.393,9.704-0.525,11.773  C658.344,147.116,656.186,148.987,656.905,150.174 M655.692,56.001c-0.447,0.227,1.358,5.114,1.358,5.114  c-1.811,0.964-1.365,10.031-1.365,11.732c-8.147,0.635-6.265,7.396-9.938,8.521c-0.239,0.075-0.857-1.109-3.428,0V54.08  c2.219-1.204,0.828-1.232,1.807-3.815c0.477-0.174,1.266-0.628,1.266-0.628c0.213,0.475,0.213,0.996,0,1.477l5.156-0.739h1.014  c2.062,4.448,3.678,1.994,6.862,3.706L655.692,56.001z M938.026,153.416l-0.578-0.186l-0.981-0.323  c0.052-0.347,0.479-4.054,0.836-4.655l0.157-0.271l-0.021-0.385l-0.396-2.728c-1.31-9.38-1.883-12.774-2.264-13.449l-0.383-0.724  l-1.233,0.578c-0.315-0.186-0.581-1.722-0.683-2.3c-0.138-0.808-0.238-1.398-0.57-1.754c-0.274-0.747-0.408-4.308-0.501-6.7  c-0.178-4.656-0.3-6.778-0.752-7.533l-0.638-2.512l-0.425-2.041l-0.4-1.647l0.009-0.208c0-1.122-0.736-1.398-2.91-2.217l0.004-0.02  l-0.133-1.023c-0.09-1.216-0.23-3.047-2.021-3.675c-3.693-4.644-5.553-4.694-7.93-4.217c0,0-0.577,0.008-1.131,0.008  c0.259-0.356,0.541-0.637,0.541-1.344c0-0.228-0.016-1.618-0.032-2.273c7.574-0.489,13.014-6.642,16.081-18.631l0.029-6.132  c0.254-0.58,0.589-1.324,0.589-1.324l0.53-1.465l0.262-0.489c0.041-0.742,0.211-3.307,0.211-5.545c0-1.453-0.073-2.77-0.283-3.348  l-6.983-14.712l-0.614-0.309l-1.803-1.417c-1.992-1.738-4.72-4.112-7.76-4.514l-2.497-0.087l-0.533,0.008  c-4.595-1.437-10.071-3.175-10.653-3.48l-0.189-0.101l-0.299-0.053h-6.746l-0.291-0.382c-0.594-0.856-0.962-1.101-2.207-1.101  l-3.612,0.97l-19.722,0.513l-0.153,1.75l5.003,1.089c0.388,0.305,0.926,0.727,0.926,0.727c2.444,1.738,8.911,6.337,9.138,9.974  l0.04,0.762l0.404-0.046l2.671,0.22c0.412-0.137,1.617-1.081,1.617-1.081l0.068-0.107c0.517,0.115,2.425,0.587,3.637,0.98  c-2.82,3.712-6.409,6.428-9.138,8.372l-3.447,2.661l0.032,0.295c-0.201,1.651-0.306,4.033-0.306,6.414  c0,2.389,0.104,4.763,0.306,6.406l0.05,0.332l1.305,1.133l-0.008,0.031l-0.021,0.329c0,0.667,0.38,1.388,1.419,2.455  c0.003,0.568,0.068,6.737,0.068,6.737l0.187,0.463l0.255,2.554c0.116,2.18,0.197,2.926,0.649,3.344  c0.47,1.035,0.541,2.744,0.541,3.633l-0.016,0.563l-0.008,0.107l0.246,0.517l0.335,1.718l0.769,2.552l-0.299-0.703v5.078  l0.348,0.489l0.469,1.039c0,0,0.319,0.596,0.565,1.071l0.655,5.74l0.234,0.479l0.153,1.053l0.602,2.047l-0.278-0.645  c0.008,7.625,0.017,19.377,0.017,27.817c0,5.754,0,9.97-0.017,10.293l-0.024,0.448l1.436,1.156c0.205,1.463,0.319,2.724,0.319,3.612  c0,0.938-0.094,1.536-0.239,1.787c-1.839,1.616-6.106,16.188-6.943,19.106v0.057c0,1.334,1.173,2.118,3.27,3.524  c4.099,2.761,11.708,7.881,15.895,19.321l1.019,2.785l0.679-2.877c1.043-4.43,1.314-7.219,1.314-9.057  c0-1.188-0.11-1.969-0.202-2.563l0.142-0.082l1.006-0.966c0.117-0.549,0.174-1.252,0.174-2.056c0-2.255-0.388-5.343-0.764-8.346  l-0.603-5.553c0.934-2.045,1.221-4.996,1.221-8.022c0-1.977-0.118-3.989-0.271-5.831l-0.845-1.859l-0.348-0.563l-0.004-0.093  c0-0.626,0.525-1.229,0.638-1.321l0.271-0.247l0.062-0.396v-0.137c0-1.213-0.587-6.652-1.536-15.236  c-0.849-7.614-1.996-17.911-1.996-19.795l0.012-0.214l0.805-2.354l0.501-0.927c1.281-2.698,1.653-3.956,1.653-5.338l-0.085-0.972  c2.117,1.576,5.1,6.982,6.691,9.928l1,1.842l0.019,0.291c0,0.942-0.403,3.452-0.714,5.343l-0.729,4.911l0.797,0.161  c3.035,0.728,6.766,20.469,6.766,23.21v0.056c0.112,0.631,0.161,2.324,0.161,4.438c0,4.757-0.243,11.651-0.558,13.328l-2.579,8.104  c-1.535,4.337-2.263,6.527-2.263,7.683l0.097,0.623l0.227,0.564l1.883-0.016c3.609-0.053,5.262-0.081,12.912,7.399  c1.071,1.071,5.509,2.486,6.386,2.757l0.941,0.29l2.995-15.918l0.715-3.132c1.229-2.947,0.274-4.475-0.186-5.223l-0.121-0.003  c0.666-3.237,0.873-5.525,0.873-7.189c0-1.71-0.214-2.772-0.372-3.568c-0.085-0.434-0.153-0.736-0.153-0.999  c0-0.392,0.125-0.699,0.48-1.212l0.142-0.223l0.013-0.315c0-1.422-1.443-4.546-1.904-5.302L938.026,153.416z M914.922,71.92  c0,0-0.481,2.447-0.223,4.011c-0.901,2.102-2.684,8.562-4.11,10.37c-0.707,0.911-3.095,2.516-5.476,2.958  c-1.459,0.275-3.771,0-3.771,0V47.773c0.551-0.037,1.06-0.037,1.719,0c3.277,0,11.639,11.861,11.639,11.861  c2.255,4.027,1.37,7.403,1.37,7.403v2.966C915.624,70.225,915.366,72.149,914.922,71.92"/>
</svg>